<mxfile host="app.diagrams.net" agent="Mozilla/5.0 (Windows NT 10.0; Win64; x64) AppleWebKit/537.36 (KHTML, like Gecko) Chrome/133.0.0.0 Safari/537.36 Edg/133.0.0.0" version="26.0.16">
  <diagram name="Page-1" id="BsfhfO7r2-OL93XCY0b7">
    <mxGraphModel dx="1209" dy="658" grid="0" gridSize="10" guides="1" tooltips="1" connect="1" arrows="1" fold="1" page="1" pageScale="1" pageWidth="1169" pageHeight="827" math="0" shadow="0">
      <root>
        <mxCell id="0" />
        <mxCell id="1" parent="0" />
        <mxCell id="SLyEM2WdTrsiLMp95Ln2-1" value="Пользователь" style="shape=umlActor;verticalLabelPosition=bottom;verticalAlign=top;html=1;outlineConnect=0;" parent="1" vertex="1">
          <mxGeometry x="93" y="444" width="30" height="60" as="geometry" />
        </mxCell>
        <mxCell id="SLyEM2WdTrsiLMp95Ln2-2" value="Админ" style="shape=umlActor;verticalLabelPosition=bottom;verticalAlign=top;html=1;outlineConnect=0;" parent="1" vertex="1">
          <mxGeometry x="93" y="164" width="30" height="60" as="geometry" />
        </mxCell>
        <mxCell id="SLyEM2WdTrsiLMp95Ln2-3" value="просмотр записей" style="ellipse;whiteSpace=wrap;html=1;" parent="1" vertex="1">
          <mxGeometry x="353" y="144" width="80" height="40" as="geometry" />
        </mxCell>
        <mxCell id="SLyEM2WdTrsiLMp95Ln2-4" value="авторизация" style="ellipse;whiteSpace=wrap;html=1;" parent="1" vertex="1">
          <mxGeometry x="193" y="164" width="80" height="40" as="geometry" />
        </mxCell>
        <mxCell id="SLyEM2WdTrsiLMp95Ln2-5" value="удаление записей" style="ellipse;whiteSpace=wrap;html=1;" parent="1" vertex="1">
          <mxGeometry x="501" y="184" width="80" height="40" as="geometry" />
        </mxCell>
        <mxCell id="SLyEM2WdTrsiLMp95Ln2-6" value="редактирование контента" style="ellipse;whiteSpace=wrap;html=1;" parent="1" vertex="1">
          <mxGeometry x="353" y="204" width="80" height="40" as="geometry" />
        </mxCell>
        <mxCell id="SLyEM2WdTrsiLMp95Ln2-10" value="" style="endArrow=none;html=1;rounded=0;entryX=0;entryY=0.5;entryDx=0;entryDy=0;" parent="1" target="SLyEM2WdTrsiLMp95Ln2-4" edge="1">
          <mxGeometry width="50" height="50" relative="1" as="geometry">
            <mxPoint x="143" y="184" as="sourcePoint" />
            <mxPoint x="213" y="224" as="targetPoint" />
          </mxGeometry>
        </mxCell>
        <mxCell id="SLyEM2WdTrsiLMp95Ln2-11" value="Гость" style="shape=umlActor;verticalLabelPosition=bottom;verticalAlign=top;html=1;outlineConnect=0;" parent="1" vertex="1">
          <mxGeometry x="93" y="304" width="30" height="60" as="geometry" />
        </mxCell>
        <mxCell id="SLyEM2WdTrsiLMp95Ln2-13" value="просмотр сайта" style="ellipse;whiteSpace=wrap;html=1;" parent="1" vertex="1">
          <mxGeometry x="189" y="304" width="80" height="40" as="geometry" />
        </mxCell>
        <mxCell id="SLyEM2WdTrsiLMp95Ln2-14" value="регистрация" style="ellipse;whiteSpace=wrap;html=1;" parent="1" vertex="1">
          <mxGeometry x="351" y="304" width="80" height="40" as="geometry" />
        </mxCell>
        <mxCell id="SLyEM2WdTrsiLMp95Ln2-15" value="работа в личном кабинете" style="ellipse;whiteSpace=wrap;html=1;" parent="1" vertex="1">
          <mxGeometry x="311" y="418" width="80" height="40" as="geometry" />
        </mxCell>
        <mxCell id="SLyEM2WdTrsiLMp95Ln2-16" value="выход" style="ellipse;whiteSpace=wrap;html=1;" parent="1" vertex="1">
          <mxGeometry x="471" y="388" width="80" height="40" as="geometry" />
        </mxCell>
        <mxCell id="SLyEM2WdTrsiLMp95Ln2-17" value="записаться&amp;nbsp;" style="ellipse;whiteSpace=wrap;html=1;" parent="1" vertex="1">
          <mxGeometry x="311" y="482" width="80" height="40" as="geometry" />
        </mxCell>
        <mxCell id="SLyEM2WdTrsiLMp95Ln2-18" value="" style="endArrow=none;html=1;rounded=0;entryX=0;entryY=0.5;entryDx=0;entryDy=0;" parent="1" target="SLyEM2WdTrsiLMp95Ln2-13" edge="1">
          <mxGeometry width="50" height="50" relative="1" as="geometry">
            <mxPoint x="133" y="324" as="sourcePoint" />
            <mxPoint x="183" y="324" as="targetPoint" />
          </mxGeometry>
        </mxCell>
        <mxCell id="SLyEM2WdTrsiLMp95Ln2-20" value="" style="endArrow=none;html=1;rounded=0;entryX=0;entryY=0.5;entryDx=0;entryDy=0;dashed=1;" parent="1" target="SLyEM2WdTrsiLMp95Ln2-15" edge="1">
          <mxGeometry width="50" height="50" relative="1" as="geometry">
            <mxPoint x="261" y="468" as="sourcePoint" />
            <mxPoint x="321" y="368" as="targetPoint" />
          </mxGeometry>
        </mxCell>
        <mxCell id="SLyEM2WdTrsiLMp95Ln2-21" value="" style="endArrow=none;html=1;rounded=0;entryX=0;entryY=0.5;entryDx=0;entryDy=0;dashed=1;" parent="1" target="SLyEM2WdTrsiLMp95Ln2-17" edge="1">
          <mxGeometry width="50" height="50" relative="1" as="geometry">
            <mxPoint x="261" y="468" as="sourcePoint" />
            <mxPoint x="321" y="448" as="targetPoint" />
          </mxGeometry>
        </mxCell>
        <mxCell id="SLyEM2WdTrsiLMp95Ln2-24" value="" style="endArrow=none;dashed=1;html=1;rounded=0;exitX=1;exitY=0.5;exitDx=0;exitDy=0;entryX=0;entryY=0.5;entryDx=0;entryDy=0;" parent="1" source="SLyEM2WdTrsiLMp95Ln2-15" target="SLyEM2WdTrsiLMp95Ln2-16" edge="1">
          <mxGeometry width="50" height="50" relative="1" as="geometry">
            <mxPoint x="401" y="418" as="sourcePoint" />
            <mxPoint x="451" y="368" as="targetPoint" />
          </mxGeometry>
        </mxCell>
        <mxCell id="SLyEM2WdTrsiLMp95Ln2-25" value="&amp;lt;extend&amp;gt;" style="text;html=1;align=center;verticalAlign=middle;resizable=0;points=[];autosize=1;strokeColor=none;fillColor=none;rotation=338;" parent="1" vertex="1">
          <mxGeometry x="393" y="395" width="68" height="26" as="geometry" />
        </mxCell>
        <mxCell id="SLyEM2WdTrsiLMp95Ln2-26" value="" style="endArrow=none;dashed=1;html=1;rounded=0;exitX=1;exitY=0.5;exitDx=0;exitDy=0;entryX=0;entryY=0.5;entryDx=0;entryDy=0;" parent="1" edge="1">
          <mxGeometry width="50" height="50" relative="1" as="geometry">
            <mxPoint x="393" y="498" as="sourcePoint" />
            <mxPoint x="473" y="468" as="targetPoint" />
          </mxGeometry>
        </mxCell>
        <mxCell id="SLyEM2WdTrsiLMp95Ln2-27" value="заполнить поля" style="ellipse;whiteSpace=wrap;html=1;" parent="1" vertex="1">
          <mxGeometry x="473" y="448" width="80" height="40" as="geometry" />
        </mxCell>
        <mxCell id="SLyEM2WdTrsiLMp95Ln2-28" value="&amp;lt;include&amp;gt;" style="text;html=1;align=center;verticalAlign=middle;resizable=0;points=[];autosize=1;strokeColor=none;fillColor=none;rotation=338;" parent="1" vertex="1">
          <mxGeometry x="392" y="458" width="70" height="26" as="geometry" />
        </mxCell>
        <mxCell id="SLyEM2WdTrsiLMp95Ln2-30" value="" style="endArrow=none;dashed=1;html=1;rounded=0;exitX=1;exitY=0.5;exitDx=0;exitDy=0;entryX=0;entryY=0.5;entryDx=0;entryDy=0;" parent="1" source="SLyEM2WdTrsiLMp95Ln2-4" target="SLyEM2WdTrsiLMp95Ln2-3" edge="1">
          <mxGeometry width="50" height="50" relative="1" as="geometry">
            <mxPoint x="298" y="217" as="sourcePoint" />
            <mxPoint x="348" y="167" as="targetPoint" />
          </mxGeometry>
        </mxCell>
        <mxCell id="SLyEM2WdTrsiLMp95Ln2-31" value="" style="endArrow=none;dashed=1;html=1;rounded=0;exitX=1;exitY=0.5;exitDx=0;exitDy=0;entryX=0;entryY=0.5;entryDx=0;entryDy=0;" parent="1" source="SLyEM2WdTrsiLMp95Ln2-4" target="SLyEM2WdTrsiLMp95Ln2-6" edge="1">
          <mxGeometry width="50" height="50" relative="1" as="geometry">
            <mxPoint x="285" y="251" as="sourcePoint" />
            <mxPoint x="335" y="201" as="targetPoint" />
          </mxGeometry>
        </mxCell>
        <mxCell id="SLyEM2WdTrsiLMp95Ln2-32" value="" style="endArrow=none;dashed=1;html=1;rounded=0;exitX=1;exitY=0.5;exitDx=0;exitDy=0;entryX=0;entryY=0.5;entryDx=0;entryDy=0;" parent="1" source="SLyEM2WdTrsiLMp95Ln2-3" target="SLyEM2WdTrsiLMp95Ln2-5" edge="1">
          <mxGeometry width="50" height="50" relative="1" as="geometry">
            <mxPoint x="488" y="213" as="sourcePoint" />
            <mxPoint x="538" y="163" as="targetPoint" />
          </mxGeometry>
        </mxCell>
        <mxCell id="SLyEM2WdTrsiLMp95Ln2-33" value="&amp;lt;extend&amp;gt;" style="text;html=1;align=center;verticalAlign=middle;resizable=0;points=[];autosize=1;strokeColor=none;fillColor=none;rotation=0;" parent="1" vertex="1">
          <mxGeometry x="437" y="161" width="68" height="26" as="geometry" />
        </mxCell>
        <mxCell id="SLyEM2WdTrsiLMp95Ln2-34" value="&amp;lt;extend&amp;gt;" style="text;html=1;align=center;verticalAlign=middle;resizable=0;points=[];autosize=1;strokeColor=none;fillColor=none;rotation=30;" parent="1" vertex="1">
          <mxGeometry x="298" y="184" width="68" height="26" as="geometry" />
        </mxCell>
        <mxCell id="SLyEM2WdTrsiLMp95Ln2-35" value="&amp;lt;extend&amp;gt;" style="text;html=1;align=center;verticalAlign=middle;resizable=0;points=[];autosize=1;strokeColor=none;fillColor=none;rotation=-15;" parent="1" vertex="1">
          <mxGeometry x="274" y="151" width="68" height="26" as="geometry" />
        </mxCell>
        <mxCell id="SLyEM2WdTrsiLMp95Ln2-36" value="" style="endArrow=none;dashed=1;html=1;rounded=0;exitX=1;exitY=0.5;exitDx=0;exitDy=0;entryX=0;entryY=0.5;entryDx=0;entryDy=0;" parent="1" target="SLyEM2WdTrsiLMp95Ln2-14" edge="1">
          <mxGeometry width="50" height="50" relative="1" as="geometry">
            <mxPoint x="271" y="326" as="sourcePoint" />
            <mxPoint x="351" y="296" as="targetPoint" />
          </mxGeometry>
        </mxCell>
        <mxCell id="SLyEM2WdTrsiLMp95Ln2-37" value="&amp;lt;extend&amp;gt;" style="text;html=1;align=center;verticalAlign=middle;resizable=0;points=[];autosize=1;strokeColor=none;fillColor=none;rotation=0;" parent="1" vertex="1">
          <mxGeometry x="281" y="297" width="68" height="26" as="geometry" />
        </mxCell>
        <mxCell id="SLyEM2WdTrsiLMp95Ln2-38" value="авторизация" style="ellipse;whiteSpace=wrap;html=1;" parent="1" vertex="1">
          <mxGeometry x="183" y="448" width="80" height="40" as="geometry" />
        </mxCell>
        <mxCell id="SLyEM2WdTrsiLMp95Ln2-39" value="" style="endArrow=none;html=1;rounded=0;entryX=0;entryY=0.5;entryDx=0;entryDy=0;" parent="1" target="SLyEM2WdTrsiLMp95Ln2-38" edge="1">
          <mxGeometry width="50" height="50" relative="1" as="geometry">
            <mxPoint x="137" y="468" as="sourcePoint" />
            <mxPoint x="173" y="496" as="targetPoint" />
          </mxGeometry>
        </mxCell>
        <mxCell id="SLyEM2WdTrsiLMp95Ln2-40" value="&amp;lt;extend&amp;gt;" style="text;html=1;align=center;verticalAlign=middle;resizable=0;points=[];autosize=1;strokeColor=none;fillColor=none;rotation=338;" parent="1" vertex="1">
          <mxGeometry x="248" y="428" width="68" height="26" as="geometry" />
        </mxCell>
        <mxCell id="SLyEM2WdTrsiLMp95Ln2-41" value="&amp;lt;extend&amp;gt;" style="text;html=1;align=center;verticalAlign=middle;resizable=0;points=[];autosize=1;strokeColor=none;fillColor=none;rotation=45;" parent="1" vertex="1">
          <mxGeometry x="255" y="484" width="68" height="26" as="geometry" />
        </mxCell>
        <mxCell id="IrmD-BjDyrnIS8Logd-o-1" value="оставить отзыв" style="ellipse;whiteSpace=wrap;html=1;" parent="1" vertex="1">
          <mxGeometry x="313" y="545" width="80" height="40" as="geometry" />
        </mxCell>
        <mxCell id="IrmD-BjDyrnIS8Logd-o-2" value="заполнить поля" style="ellipse;whiteSpace=wrap;html=1;" parent="1" vertex="1">
          <mxGeometry x="473" y="526" width="80" height="40" as="geometry" />
        </mxCell>
        <mxCell id="IrmD-BjDyrnIS8Logd-o-3" value="&amp;lt;include&amp;gt;" style="text;html=1;align=center;verticalAlign=middle;resizable=0;points=[];autosize=1;strokeColor=none;fillColor=none;rotation=-15;" parent="1" vertex="1">
          <mxGeometry x="398" y="533" width="70" height="26" as="geometry" />
        </mxCell>
        <mxCell id="IrmD-BjDyrnIS8Logd-o-4" value="" style="endArrow=none;dashed=1;html=1;rounded=0;exitX=1;exitY=0.5;exitDx=0;exitDy=0;entryX=0;entryY=0.5;entryDx=0;entryDy=0;" parent="1" target="IrmD-BjDyrnIS8Logd-o-2" edge="1">
          <mxGeometry width="50" height="50" relative="1" as="geometry">
            <mxPoint x="393" y="563" as="sourcePoint" />
            <mxPoint x="473" y="533" as="targetPoint" />
          </mxGeometry>
        </mxCell>
        <mxCell id="IrmD-BjDyrnIS8Logd-o-5" value="" style="endArrow=none;dashed=1;html=1;rounded=0;entryX=0;entryY=0.5;entryDx=0;entryDy=0;" parent="1" source="SLyEM2WdTrsiLMp95Ln2-38" target="IrmD-BjDyrnIS8Logd-o-1" edge="1">
          <mxGeometry width="50" height="50" relative="1" as="geometry">
            <mxPoint x="413" y="518" as="sourcePoint" />
            <mxPoint x="493" y="488" as="targetPoint" />
          </mxGeometry>
        </mxCell>
        <mxCell id="IrmD-BjDyrnIS8Logd-o-6" value="&amp;lt;extend&amp;gt;" style="text;html=1;align=center;verticalAlign=middle;resizable=0;points=[];autosize=1;strokeColor=none;fillColor=none;rotation=45;" parent="1" vertex="1">
          <mxGeometry x="230" y="513" width="68" height="26" as="geometry" />
        </mxCell>
        <mxCell id="nLjZLpSFoqCz-PKqIvXQ-1" value="редактирование записей" style="ellipse;whiteSpace=wrap;html=1;" vertex="1" parent="1">
          <mxGeometry x="501" y="125" width="80" height="40" as="geometry" />
        </mxCell>
        <mxCell id="nLjZLpSFoqCz-PKqIvXQ-2" value="экспорт EXEL" style="ellipse;whiteSpace=wrap;html=1;" vertex="1" parent="1">
          <mxGeometry x="504" y="65" width="80" height="40" as="geometry" />
        </mxCell>
        <mxCell id="nLjZLpSFoqCz-PKqIvXQ-3" value="&amp;lt;extend&amp;gt;" style="text;html=1;align=center;verticalAlign=middle;resizable=0;points=[];autosize=1;strokeColor=none;fillColor=none;rotation=-45;" vertex="1" parent="1">
          <mxGeometry x="445" y="118" width="68" height="26" as="geometry" />
        </mxCell>
        <mxCell id="nLjZLpSFoqCz-PKqIvXQ-4" value="" style="endArrow=none;dashed=1;html=1;rounded=0;exitX=1;exitY=0.5;exitDx=0;exitDy=0;entryX=0;entryY=0.5;entryDx=0;entryDy=0;" edge="1" parent="1" source="SLyEM2WdTrsiLMp95Ln2-3" target="nLjZLpSFoqCz-PKqIvXQ-1">
          <mxGeometry width="50" height="50" relative="1" as="geometry">
            <mxPoint x="443" y="174" as="sourcePoint" />
            <mxPoint x="505" y="174" as="targetPoint" />
          </mxGeometry>
        </mxCell>
        <mxCell id="nLjZLpSFoqCz-PKqIvXQ-5" value="" style="endArrow=none;dashed=1;html=1;rounded=0;exitX=1;exitY=0.5;exitDx=0;exitDy=0;entryX=0;entryY=0.5;entryDx=0;entryDy=0;" edge="1" parent="1" source="SLyEM2WdTrsiLMp95Ln2-3" target="nLjZLpSFoqCz-PKqIvXQ-2">
          <mxGeometry width="50" height="50" relative="1" as="geometry">
            <mxPoint x="443" y="174" as="sourcePoint" />
            <mxPoint x="505" y="115" as="targetPoint" />
          </mxGeometry>
        </mxCell>
        <mxCell id="nLjZLpSFoqCz-PKqIvXQ-6" value="&amp;lt;extend&amp;gt;" style="text;html=1;align=center;verticalAlign=middle;resizable=0;points=[];autosize=1;strokeColor=none;fillColor=none;rotation=-50;" vertex="1" parent="1">
          <mxGeometry x="420" y="99" width="68" height="26" as="geometry" />
        </mxCell>
      </root>
    </mxGraphModel>
  </diagram>
</mxfile>
